<svg xmlns="http://www.w3.org/2000/svg" viewBox="0 0 48 48">
  <path d="M34.621094 4.0058594C34.081225 3.9923794 33.530583 4.0583897 32.986328 4.2148438L8.9804688 11.121094C6.0780933 11.955817 4.3827369 15.026102 5.2128906 17.931641L6 20.683594L6 21.5L6 38.5C6 41.519774 8.4802259 44 11.5 44L37.5 44C40.519774 44 43 41.519774 43 38.5L43 21.5 A 1.50015 1.50015 0 0 0 41.5 20L18.669922 20L39.914062 13.888672 A 1.50015 1.50015 0 0 0 40.941406 12.035156L39.787109 7.9921875C39.164468 5.8129443 37.282281 4.3089998 35.15625 4.0449219C34.979081 4.0229154 34.80105 4.0103527 34.621094 4.0058594 z M 35.787109 7.3964844C36.296004 7.7111733 36.720902 8.1813619 36.902344 8.8164062 A 1.50015 1.50015 0 0 0 36.902344 8.8183594L37.646484 11.419922L32.837891 12.802734L35.787109 7.3964844 z M 32.294922 7.5351562L28.785156 13.96875L23.335938 15.537109L26.84375 9.1035156L32.294922 7.5351562 z M 22.792969 10.269531L19.283203 16.703125L13.833984 18.269531L17.341797 11.837891L22.792969 10.269531 z M 13.289062 13.003906L9.7792969 19.435547L8.8398438 19.705078L8.0976562 17.107422C7.7118101 15.75696 8.4709223 14.389183 9.8105469 14.003906L13.289062 13.003906 z M 9 23L40 23L40 38.5C40 39.898226 38.898226 41 37.5 41L11.5 41C10.101774 41 9 39.898226 9 38.5L9 23 z M 22.505859 27C22.246359 26.99925 21.987406 27.066219 21.753906 27.199219C21.287906 27.467219 21 27.963 21 28.5L21 35.5C21 36.037 21.287906 36.532781 21.753906 36.800781C21.984906 36.933781 22.242 37 22.5 37C22.761 37 23.021859 36.932875 23.255859 36.796875L29.255859 33.296875C29.716859 33.026875 30 32.533 30 32C30 31.467 29.716859 30.973125 29.255859 30.703125L23.255859 27.203125C23.024359 27.068125 22.765359 27.00075 22.505859 27 z" fill="#5B5B5B" />
</svg>