<svg xmlns="http://www.w3.org/2000/svg" viewBox="0 0 48 48">
  <path d="M33.5 2C29.526 2 26.284391 5.092 26.025391 9L26 9C23.239 9 21 11.239 21 14C21 16.761 23.239 19 26 19L41 19C43.761 19 46 16.761 46 14C46 11.239 43.761 9 41 9L40.974609 9C40.716609 5.092 37.474 2 33.5 2 z M 8.5 8C6.57 8 5 9.57 5 11.5L5 30.5C5 32.43 6.57 34 8.5 34L39.5 34C41.43 34 43 32.43 43 30.5L43 20.710938C42.37 20.900937 41.69 21 41 21L40 21L40 30.5C40 30.78 39.78 31 39.5 31L8.5 31C8.22 31 8 30.78 8 30.5L8 11.5C8 11.22 8.22 11 8.5 11L19.679688 11C20.269687 9.75 21.230156 8.71 22.410156 8L8.5 8 z M 2.5 37 A 1.50015 1.50015 0 1 0 2.5 40L45.5 40 A 1.50015 1.50015 0 1 0 45.5 37L2.5 37 z" fill="#5B5B5B" />
</svg>