<svg xmlns="http://www.w3.org/2000/svg" viewBox="0 0 48 48">
  <path d="M23.976562 5.9785156 A 1.50015 1.50015 0 0 0 22.5 7.5L22.5 28.878906L19.060547 25.439453 A 1.50015 1.50015 0 0 0 17.984375 24.984375 A 1.50015 1.50015 0 0 0 16.939453 27.560547L22.939453 33.560547 A 1.50015 1.50015 0 0 0 25.060547 33.560547L31.060547 27.560547 A 1.50015 1.50015 0 1 0 28.939453 25.439453L25.5 28.878906L25.5 7.5 A 1.50015 1.50015 0 0 0 23.976562 5.9785156 z M 11.5 17C8.4802259 17 6 19.480226 6 22.5L6 36.5C6 39.519774 8.4802259 42 11.5 42L36.5 42C39.519774 42 42 39.519774 42 36.5L42 22.5C42 19.480226 39.519774 17 36.5 17L30.5 17 A 1.50015 1.50015 0 1 0 30.5 20L36.5 20C37.898226 20 39 21.101774 39 22.5L39 36.5C39 37.898226 37.898226 39 36.5 39L11.5 39C10.101774 39 9 37.898226 9 36.5L9 22.5C9 21.101774 10.101774 20 11.5 20L17.5 20 A 1.50015 1.50015 0 1 0 17.5 17L11.5 17 z" fill="#5B5B5B" />
</svg>