<svg xmlns="http://www.w3.org/2000/svg" viewBox="0 0 48 48">
  <path d="M13.476562 4.9785156 A 1.50015 1.50015 0 0 0 12 6.5L12 9.3066406C10.7424 9.7627229 9.7627229 10.7424 9.3066406 12L6.5 12 A 1.50015 1.50015 0 1 0 6.5 15L9 15L9 19L6.5 19 A 1.50015 1.50015 0 1 0 6.5 22L9 22L9 26L6.5 26 A 1.50015 1.50015 0 1 0 6.5 29L9 29L9 33L6.5 33 A 1.50015 1.50015 0 1 0 6.5 36L9.3066406 36C9.7627229 37.2576 10.7424 38.237277 12 38.693359L12 41.5 A 1.50015 1.50015 0 1 0 15 41.5L15 39L19 39L19 41.5 A 1.50015 1.50015 0 1 0 22 41.5L22 39L26 39L26 41.5 A 1.50015 1.50015 0 1 0 29 41.5L29 39L33 39L33 41.5 A 1.50015 1.50015 0 1 0 36 41.5L36 38.693359C37.2576 38.237277 38.237277 37.2576 38.693359 36L41.5 36 A 1.50015 1.50015 0 1 0 41.5 33L39 33L39 29L41.5 29 A 1.50015 1.50015 0 1 0 41.5 26L39 26L39 22L41.5 22 A 1.50015 1.50015 0 1 0 41.5 19L39 19L39 15L41.5 15 A 1.50015 1.50015 0 1 0 41.5 12L38.693359 12C38.237277 10.7424 37.2576 9.7627229 36 9.3066406L36 6.5 A 1.50015 1.50015 0 1 0 33 6.5L33 9L29 9L29 6.5 A 1.50015 1.50015 0 1 0 26 6.5L26 9L22 9L22 6.5 A 1.50015 1.50015 0 1 0 19 6.5L19 9L15 9L15 6.5 A 1.50015 1.50015 0 0 0 13.476562 4.9785156 z M 13.740234 12L20.253906 12 A 1.50015 1.50015 0 0 0 20.740234 12L27.253906 12 A 1.50015 1.50015 0 0 0 27.740234 12L34.253906 12 A 1.50015 1.50015 0 0 0 34.548828 12.019531C35.348407 12.047831 35.953138 12.653242 35.980469 13.453125 A 1.50015 1.50015 0 0 0 36 13.740234L36 20.253906 A 1.50015 1.50015 0 0 0 36 20.740234L36 27.253906 A 1.50015 1.50015 0 0 0 36 27.740234L36 34.253906 A 1.50015 1.50015 0 0 0 35.980469 34.548828C35.952169 35.348407 35.346758 35.953138 34.546875 35.980469 A 1.50015 1.50015 0 0 0 34.259766 36L27.746094 36 A 1.50015 1.50015 0 0 0 27.259766 36L20.746094 36 A 1.50015 1.50015 0 0 0 20.259766 36L13.746094 36 A 1.50015 1.50015 0 0 0 13.451172 35.980469C12.651593 35.952169 12.046862 35.346758 12.019531 34.546875 A 1.50015 1.50015 0 0 0 12 34.259766L12 27.746094 A 1.50015 1.50015 0 0 0 12 27.259766L12 20.746094 A 1.50015 1.50015 0 0 0 12 20.259766L12 13.746094 A 1.50015 1.50015 0 0 0 12.019531 13.451172C12.047831 12.651593 12.653242 12.046862 13.453125 12.019531 A 1.50015 1.50015 0 0 0 13.740234 12 z M 19.5 17C18.140946 17 17 18.140946 17 19.5L17 28.5C17 29.859054 18.140946 31 19.5 31L28.5 31C29.859054 31 31 29.859054 31 28.5L31 19.5C31 18.140946 29.859054 17 28.5 17L19.5 17 z M 20 20L28 20L28 28L20 28L20 20 z" fill="#5B5B5B" />
</svg>