<svg xmlns="http://www.w3.org/2000/svg" viewBox="0 0 48 48">
  <path d="M11.5 5 A 1.50015 1.50015 0 0 0 10.251953 5.6679688L9.359375 7.0078125C6.4043099 7.0841728 4 9.5277476 4 12.5L4 35.5C4 38.519774 6.4802259 41 9.5 41L38.5 41C41.519774 41 44 38.519774 44 35.5L44 23.470703L44 12.529297L44 12.5C44 9.4802259 41.519774 7 38.5 7L38.470703 7L27.529297 7L21.136719 7L20.248047 5.6679688 A 1.50015 1.50015 0 0 0 19 5L11.5 5 z M 9.5 10L22.623047 10C22.227314 10.760191 22 11.618804 22 12.529297L22 23.470703C22 26.507125 24.492875 29 27.529297 29L38.470703 29C39.381195 29 40.239809 28.772686 41 28.376953L41 35.5C41 36.898226 39.898226 38 38.5 38L9.5 38C8.1017741 38 7 36.898226 7 35.5L7 12.5C7 11.101774 8.1017741 10 9.5 10 z M 27.529297 10L38.470703 10C39.886281 10 41 11.113719 41 12.529297L41 23.470703C41 24.886281 39.886281 26 38.470703 26L27.529297 26C26.113719 26 25 24.886281 25 23.470703L25 12.529297C25 11.113719 26.113719 10 27.529297 10 z M 11.5 13 A 1.50015 1.50015 0 0 0 10 14.5L10 22.5 A 1.50015 1.50015 0 0 0 11.5 24L17.5 24 A 1.50015 1.50015 0 0 0 19 22.5L19 14.5 A 1.50015 1.50015 0 0 0 17.5 13L11.5 13 z M 33 13C30.239 13 28 15.239 28 18C28 20.761 30.239 23 33 23C35.761 23 38 20.761 38 18C38 15.239 35.761 13 33 13 z M 13 16L16 16L16 21L13 21L13 16 z M 13.5 28 A 3.5 3.5 0 1 0 13.5 35 A 3.5 3.5 0 1 0 13.5 28 z M 22 31 A 2 2 0 0 0 22 35 A 2 2 0 0 0 22 31 z" fill="#5B5B5B" />
</svg>