<svg xmlns="http://www.w3.org/2000/svg" viewBox="0 0 48 48">
  <path d="M24 2C14.629252 2 7 9.6292523 7 19C7 22.903564 9.3597691 27.575514 12.148438 32.224609C14.937105 36.873704 18.245794 41.372227 20.4375 44.222656C22.213546 46.532406 25.786454 46.532406 27.5625 44.222656C29.754779 41.372139 33.062759 36.873719 35.851562 32.224609C38.640366 27.5755 41 22.903564 41 19C41 9.6292523 33.370748 2 24 2 z M 24 5C31.749252 5 38 11.250748 38 19C38 21.540436 35.968243 26.199 33.279297 30.681641C30.590351 35.164281 27.334315 39.598049 25.183594 42.394531C24.56364 43.200781 23.434407 43.200781 22.814453 42.394531C20.664159 39.59796 17.409535 35.164296 14.720703 30.681641C12.031871 26.198986 10 21.540436 10 19C10 11.250748 16.250748 5 24 5 z M 24 11.005859C23.777 11.005734 23.554141 11.079109 23.369141 11.224609L17.761719 15.640625C17.280719 16.020625 17 16.599891 17 17.212891L17 25C17 25.552 17.448 26 18 26L21 26C21.552 26 22 25.552 22 25L22 21C22 20.448 22.448 20 23 20L25 20C25.552 20 26 20.448 26 21L26 25C26 25.552 26.448 26 27 26L30 26C30.552 26 31 25.552 31 25L31 17.212891C31 16.599891 30.719281 16.021578 30.238281 15.642578L24.630859 11.224609C24.445859 11.078609 24.223 11.005984 24 11.005859 z" fill="#5B5B5B" />
</svg>