<svg xmlns="http://www.w3.org/2000/svg" viewBox="0 0 48 48">
  <path d="M5.5195312 4C3.6032946 4 2.0195314 5.5837634 2.0195312 7.5L2.0195312 15.5C2.0195312 17.416237 3.6032946 19 5.5195312 19L13.019531 19L19.628906 23.720703 A 1.50015 1.50015 0 0 0 22 22.5L22 7.5C22 5.5837634 20.416237 4 18.5 4L5.5195312 4 z M 24 4C23.58 4 23.16 4.0107813 22.75 4.0507812C22.79 4.0807813 22.810312 4.110625 22.820312 4.140625C23.450312 4.940625 23.859219 5.92 23.949219 7L24 7C24.07 7 24.150703 6.9997656 24.220703 7.0097656C26.490703 7.2197656 28.890625 10.63 30.140625 16L24 16L24 19L30.679688 19C30.799688 19.96 30.899219 20.96 30.949219 22L33.949219 22C33.899219 20.97 33.819453 19.97 33.689453 19L40.25 19C40.54 19.97 40.760859 20.97 40.880859 22L42.5 22C42.99 22 43.469922 22.059453 43.919922 22.189453C42.999922 11.999453 34.42 4 24 4 z M 5.5195312 7L18.5 7C18.789763 7 19 7.2102366 19 7.5L19 19.585938L14.371094 16.279297 A 1.50015 1.50015 0 0 0 13.5 16L5.5195312 16C5.229768 16 5.0195313 15.789763 5.0195312 15.5L5.0195312 7.5C5.0195312 7.2102366 5.2297679 7 5.5195312 7 z M 30.179688 8.1699219C33.959688 9.6499219 37.090234 12.45 38.990234 16L33.199219 16C32.529219 12.89 31.489688 10.199922 30.179688 8.1699219 z M 4.25 20.849609C4.08 21.869609 4 22.93 4 24C4 34.9 12.749609 43.780234 23.599609 43.990234C23.729609 43.990234 23.87 44 24 44C24.06 44 24.119687 44.000234 24.179688 43.990234C24.239687 44.000234 24.299375 44.000234 24.359375 43.990234L24.349609 43.980469C24.139609 43.530469 24.019531 43.02 24.019531 42.5L24.019531 41L24 41C23.93 41 23.849297 41.000234 23.779297 40.990234C21.509297 40.780234 19.109141 37.37 17.869141 32L24 32L24 29L17.320312 29C17.120313 27.54 17.01 25.970312 17 24.320312L14.039062 22.199219C14.009063 22.789219 14 23.39 14 24C14 25.73 14.110781 27.41 14.300781 29L7.7558594 29C7.2675882 27.418123 7 25.740101 7 24C7 22.98 7.0892969 21.97 7.2792969 21L5.5 21C5.07 21 4.65 20.949609 4.25 20.849609 z M 29.5 24C27.583763 24 26 25.583763 26 27.5L26 42.5 A 1.50015 1.50015 0 0 0 28.371094 43.720703L34.980469 39L42.5 39C44.416237 39 46 37.416237 46 35.5L46 27.5C46 25.583763 44.416237 24 42.5 24L29.5 24 z M 29.5 27L42.5 27C42.789763 27 43 27.210237 43 27.5L43 35.5C43 35.789763 42.789763 36 42.5 36L34.5 36 A 1.50015 1.50015 0 0 0 33.628906 36.279297L29 39.585938L29 27.5C29 27.210237 29.210237 27 29.5 27 z M 9.0175781 32L14.810547 32C15.470547 35.11 16.510547 37.790078 17.810547 39.830078C14.033701 38.348025 10.919635 35.544954 9.0175781 32 z" fill="#5B5B5B" />
</svg>