<svg xmlns="http://www.w3.org/2000/svg" viewBox="0 0 48 48">
  <path d="M40.455078 6 A 1.50015 1.50015 0 0 0 40.167969 6.0371094L20.501953 10.505859C18.461283 10.969854 17 12.803006 17 14.894531L17 15.5L17 20.5L17 32.291016C15.713708 31.506354 14.193199 31 12.5 31C10.539147 31 8.7361897 31.583111 7.3574219 32.617188C5.978654 33.651263 5 35.21692 5 37C5 38.78308 5.978654 40.348737 7.3574219 41.382812C8.7361897 42.416889 10.539147 43 12.5 43C14.460853 43 16.26381 42.416889 17.642578 41.382812C19.021346 40.348737 20 38.78308 20 37C20 36.9472 19.962637 36.90593 19.960938 36.853516 A 1.50015 1.50015 0 0 0 20 36.5L20 21.697266L39 17.378906L39 28.291016C37.713708 27.506354 36.193199 27 34.5 27C32.539147 27 30.73619 27.583111 29.357422 28.617188C27.978654 29.651264 27 31.21692 27 33C27 34.78308 27.978654 36.348737 29.357422 37.382812C30.73619 38.416889 32.539147 39 34.5 39C36.460853 39 38.26381 38.416889 39.642578 37.382812C41.021346 36.348737 42 34.78308 42 33C42 32.9472 41.962637 32.90593 41.960938 32.853516 A 1.50015 1.50015 0 0 0 42 32.5L42 15.5L42 12.5L42 7.5 A 1.50015 1.50015 0 0 0 40.455078 6 z M 39 9.3789062L39 12.5L39 14.302734L20 18.621094L20 15.5L20 14.894531C20 14.186674 20.47563 13.588317 21.166016 13.431641 A 1.50015 1.50015 0 0 0 21.167969 13.431641L39 9.3789062 z M 34.5 30C35.852858 30 37.048994 30.422975 37.841797 31.017578C38.6346 31.612181 39 32.297798 39 33C39 33.702202 38.6346 34.387819 37.841797 34.982422C37.048994 35.577025 35.852858 36 34.5 36C33.147142 36 31.951006 35.577025 31.158203 34.982422C30.3654 34.387819 30 33.702202 30 33C30 32.297798 30.3654 31.612181 31.158203 31.017578C31.951006 30.422975 33.147142 30 34.5 30 z M 12.5 34C13.852858 34 15.048994 34.422975 15.841797 35.017578C16.6346 35.612181 17 36.297798 17 37C17 37.702202 16.6346 38.387819 15.841797 38.982422C15.048994 39.577025 13.852858 40 12.5 40C11.147142 40 9.9510063 39.577025 9.1582031 38.982422C8.3653999 38.387819 8 37.702202 8 37C8 36.297798 8.3653999 35.612181 9.1582031 35.017578C9.9510063 34.422975 11.147142 34 12.5 34 z" fill="#5B5B5B" />
</svg>