<svg xmlns="http://www.w3.org/2000/svg" viewBox="0 0 48 48">
  <path d="M16.5 4C13.480226 4 11 6.4802259 11 9.5L11 38.5C11 41.519774 13.480226 44 16.5 44L31.5 44C34.519774 44 37 41.519774 37 38.5L37 9.5C37 6.4802259 34.519774 4 31.5 4L29.050781 4L19 4L16.5 4 z M 16.5 7L18.074219 7L18.658203 8.1699219 A 1.50015 1.50015 0 0 0 20 9L28 9 A 1.50015 1.50015 0 0 0 29.341797 8.1699219L29.925781 7L31.5 7C32.898226 7 34 8.1017741 34 9.5L34 38.5C34 39.898226 32.898226 41 31.5 41L16.5 41C15.101774 41 14 39.898226 14 38.5L14 9.5C14 8.1017741 15.101774 7 16.5 7 z" fill="#5B5B5B" />
</svg>