<svg xmlns="http://www.w3.org/2000/svg" viewBox="0 0 48 48">
  <path d="M8.5 5C6.0324991 5 4 7.0324991 4 9.5L4 30.5C4 32.967501 6.0324991 35 8.5 35L17 35L17 40L13.5 40 A 1.50015 1.50015 0 1 0 13.5 43L18.253906 43 A 1.50015 1.50015 0 0 0 18.740234 43L29.253906 43 A 1.50015 1.50015 0 0 0 29.740234 43L34.5 43 A 1.50015 1.50015 0 1 0 34.5 40L31 40L31 35L39.5 35C41.967501 35 44 32.967501 44 30.5L44 9.5C44 7.0324991 41.967501 5 39.5 5L8.5 5 z M 8.5 8L39.5 8C40.346499 8 41 8.6535009 41 9.5L41 30.5C41 31.346499 40.346499 32 39.5 32L29.746094 32 A 1.50015 1.50015 0 0 0 29.259766 32L18.746094 32 A 1.50015 1.50015 0 0 0 18.259766 32L8.5 32C7.6535009 32 7 31.346499 7 30.5L7 9.5C7 8.6535009 7.6535009 8 8.5 8 z M 25.521484 11.978516 A 1.50015 1.50015 0 0 0 24.039062 13.162109L21.039062 26.162109 A 1.50015 1.50015 0 1 0 23.960938 26.837891L26.960938 13.837891 A 1.50015 1.50015 0 0 0 25.521484 11.978516 z M 17.503906 14.984375 A 1.50015 1.50015 0 0 0 16.361328 15.523438L13.361328 19.023438 A 1.50015 1.50015 0 0 0 13.361328 20.976562L16.361328 24.476562 A 1.50015 1.50015 0 1 0 18.638672 22.523438L16.476562 20L18.638672 17.476562 A 1.50015 1.50015 0 0 0 17.503906 14.984375 z M 30.451172 14.984375 A 1.50015 1.50015 0 0 0 29.361328 17.476562L31.523438 20L29.361328 22.523438 A 1.50015 1.50015 0 1 0 31.638672 24.476562L34.638672 20.976562 A 1.50015 1.50015 0 0 0 34.638672 19.023438L31.638672 15.523438 A 1.50015 1.50015 0 0 0 30.451172 14.984375 z M 20 35L28 35L28 40L20 40L20 35 z" fill="#5B5B5B" />
</svg>