<svg xmlns="http://www.w3.org/2000/svg" viewBox="0 0 48 48">
  <path d="M17.472656 5C15.87426 5 14.390847 5.8519349 13.585938 7.2324219L11.388672 11L10.5 11C6.9280619 11 4 13.928062 4 17.5L4 36.5C4 40.071938 6.9280619 43 10.5 43L37.5 43C41.071938 43 44 40.071938 44 36.5L44 17.5C44 14.444794 41.854977 11.867323 39 11.183594L39 10.5C39 9.672 38.329 9 37.5 9L34.5 9C33.671 9 33 9.672 33 10.5L33 11L30.611328 11L28.414062 7.2324219C27.609153 5.8519349 26.12574 5 24.527344 5L17.472656 5 z M 17.472656 8L24.527344 8C25.062947 8 25.553175 8.2826276 25.822266 8.7441406L28.455078 13.255859 A 1.50015 1.50015 0 0 0 29.75 14L37.5 14C39.450062 14 41 15.549938 41 17.5L41 36.5C41 38.450062 39.450062 40 37.5 40L10.5 40C8.5499381 40 7 38.450062 7 36.5L7 17.5C7 15.549938 8.5499381 14 10.5 14L12.25 14 A 1.50015 1.50015 0 0 0 13.544922 13.255859L16.177734 8.7441406C16.446825 8.2826276 16.937053 8 17.472656 8 z M 11.5 17 A 1.50015 1.50015 0 0 0 10 18.5L10 32.5 A 1.50015 1.50015 0 0 0 11.5 34L30.5 34 A 1.50015 1.50015 0 0 0 32 32.5L32 18.5 A 1.50015 1.50015 0 0 0 30.5 17L11.5 17 z M 36.5 18 A 1.5 1.5 0 0 0 36.5 21 A 1.5 1.5 0 0 0 36.5 18 z M 13 20L29 20L29 31L13 31L13 20 z M 36.5 24 A 1.5 1.5 0 0 0 36.5 27 A 1.5 1.5 0 0 0 36.5 24 z M 36.5 30 A 1.5 1.5 0 0 0 36.5 33 A 1.5 1.5 0 0 0 36.5 30 z" fill="#5B5B5B" />
</svg>