<svg xmlns="http://www.w3.org/2000/svg" viewBox="0 0 48 48">
  <path d="M27.996094 1C25.788094 1 23.998047 2.7920469 23.998047 4.9980469C23.998047 7.2080469 25.788094 9 27.996094 9C30.209094 9 31.998047 7.2080469 31.998047 4.9980469C31.998047 2.7920469 30.209094 1 27.996094 1 z M 24.582031 10.496094C23.566417 10.509088 22.651978 10.738783 21.865234 10.982422 A 1.50015 1.50015 0 0 0 21.808594 11L14.498047 13.585938 A 1.50015 1.50015 0 0 0 13.9375 13.939453L9.9375 17.939453 A 1.5005306 1.5005306 0 1 0 12.060547 20.060547L15.724609 16.396484L19.818359 16.181641L18.958984 18.791016L14.146484 28.853516 A 1.50015 1.50015 0 1 0 16.804688 30.242188L21.265625 25.5L18.193359 38.673828L18.076172 39.025391 A 1.50015 1.50015 0 1 0 20.921875 39.974609L25.544922 26.107422L28.626953 18.160156L36.369141 23.5L36.357422 23.480469L36.4375 23.560547 A 1.5005306 1.5005306 0 1 0 38.560547 21.439453L30.060547 12.939453 A 1.50015 1.50015 0 0 0 30.046875 12.925781C28.836823 11.745531 27.583333 11.058252 26.367188 10.734375C26.132505 10.659004 25.892374 10.60063 25.642578 10.564453C25.638773 10.563901 25.634663 10.563045 25.630859 10.5625C25.616135 10.560392 25.602581 10.562549 25.587891 10.560547C25.392281 10.534628 25.198852 10.5 24.996094 10.5C24.94992 10.5 24.907168 10.512289 24.861328 10.513672C24.769617 10.511259 24.67218 10.49494 24.582031 10.496094 z M 29.498047 33 A 3.5 3.5 0 1 0 29.498047 40 A 3.5 3.5 0 1 0 29.498047 33 z M 31.998047 41.710938C31.308252 41.710938 30.619262 41.795748 29.945312 41.964844C29.739442 42.016564 29.526359 42.069094 29.318359 42.121094 A 1.50015 1.50015 0 0 0 29.316406 42.121094C28.449441 42.339011 27.545153 42.34005 26.677734 42.123047 A 1.50015 1.50015 0 0 0 26.675781 42.123047C26.470087 42.071867 26.255412 42.017932 26.041016 41.964844C24.698775 41.629614 23.295307 41.629298 21.953125 41.964844C21.739691 42.017464 21.523518 42.072486 21.314453 42.125L21.316406 42.123047C20.45122 42.339343 19.546827 42.339343 18.681641 42.123047 A 1.50015 1.50015 0 0 0 18.675781 42.123047C18.469181 42.072127 18.255901 42.017839 18.044922 41.964844 A 1.50015 1.50015 0 0 0 18.042969 41.964844C16.700155 41.62914 15.295939 41.62914 13.953125 41.964844C13.739691 42.017464 13.523518 42.072486 13.314453 42.125L13.316406 42.123047C12.45122 42.339343 11.546827 42.339343 10.681641 42.123047 A 1.50015 1.50015 0 0 0 10.675781 42.123047C10.469181 42.072127 10.255901 42.017839 10.044922 41.964844 A 1.50015 1.50015 0 0 0 10.042969 41.964844C8.7001546 41.62914 7.2959389 41.62914 5.953125 41.964844C4.8594011 42.238775 4.1347656 42.419922 4.1347656 42.419922 A 1.50015 1.50015 0 1 0 4.8632812 45.330078C4.8632812 45.330078 5.5873645 45.149069 6.6816406 44.875C7.5468268 44.658703 8.4512202 44.658703 9.3164062 44.875C9.5268589 44.92786 9.7441993 44.982223 9.9589844 45.035156C11.300078 45.369439 12.70205 45.370386 14.042969 45.035156 A 1.50015 1.50015 0 0 0 14.044922 45.033203C14.255901 44.980203 14.469181 44.927869 14.675781 44.876953 A 1.50015 1.50015 0 0 0 14.681641 44.875C15.546185 44.658864 16.449849 44.659184 17.314453 44.875C17.525474 44.928 17.743585 44.982072 17.958984 45.035156C19.300078 45.369439 20.70205 45.370386 22.042969 45.035156 A 1.50015 1.50015 0 0 0 22.044922 45.033203C22.255901 44.980203 22.469181 44.927869 22.675781 44.876953 A 1.50015 1.50015 0 0 0 22.681641 44.875C23.546827 44.658703 24.45122 44.658703 25.316406 44.875 A 1.50015 1.50015 0 0 0 25.320312 44.876953C25.525917 44.927863 25.738866 44.980381 25.951172 45.033203C27.296547 45.369519 28.703043 45.368747 30.046875 45.03125C30.254875 44.97925 30.467653 44.92533 30.675781 44.873047C31.543883 44.655238 32.454164 44.655238 33.322266 44.873047 A 1.50015 1.50015 0 0 0 33.322266 44.875C33.530266 44.927 33.743347 44.979533 33.949219 45.03125C35.295079 45.36954 36.701829 45.368506 38.046875 45.033203C38.258093 44.980653 38.472904 44.926448 38.679688 44.875 A 1.50015 1.50015 0 0 0 38.681641 44.875C39.546827 44.658703 40.45122 44.658703 41.316406 44.875C42.410891 45.149121 43.134766 45.330078 43.134766 45.330078 A 1.50015 1.50015 0 1 0 43.863281 42.419922C43.863281 42.419922 43.138437 42.238722 42.044922 41.964844 A 1.50015 1.50015 0 0 0 42.042969 41.964844C40.700155 41.62914 39.295939 41.62914 37.953125 41.964844C37.742499 42.017254 37.528447 42.071748 37.322266 42.123047 A 1.50015 1.50015 0 0 0 37.320312 42.123047C36.45136 42.339697 35.545828 42.33885 34.679688 42.121094C34.471559 42.068814 34.258781 42.014891 34.050781 41.962891L34.052734 41.964844C33.378785 41.795748 32.687842 41.710938 31.998047 41.710938 z" fill="#5B5B5B" />
</svg>